<svg xmlns="http://www.w3.org/2000/svg" width="38.061" height="38" viewBox="0 0 38.061 38"><g transform="translate(-672.939 -440)"><rect width="38" height="38" rx="2" transform="translate(673 440)" fill="#5a78a4"/><g transform="translate(672.939 440)"><path d="M4.644,0H33.356A4.644,4.644,0,0,1,38,4.644V33.356A4.644,4.644,0,0,1,33.356,38H4.644A4.644,4.644,0,0,1,0,33.356V4.644A4.644,4.644,0,0,1,4.644,0Z" transform="translate(0 0)" fill="#567aa5"/><path d="M21.034,14.168c-.41-.56-.293-.809,0-1.309.005-.006,3.388-5.06,3.737-6.775h0c.173-.625,0-1.084-.838-1.084H21.164a1.194,1.194,0,0,0-1.205.835,25.021,25.021,0,0,1-3.407,6.02c-.644.684-.942.9-1.294.9-.173,0-.443-.219-.443-.844V6.084c0-.749-.2-1.084-.782-1.084H9.676a.687.687,0,0,0-.706.675c0,.71,1,.874,1.1,2.872v4.336c0,.95-.159,1.125-.513,1.125-.942,0-3.229-3.667-4.584-7.864C4.7,5.33,4.434,5,3.723,5H.951C.159,5,0,5.4,0,5.836c0,.779.942,4.652,4.381,9.768,2.292,3.492,5.52,5.385,8.456,5.385,1.765,0,1.98-.42,1.98-1.143,0-3.337-.159-3.652.725-3.652.41,0,1.115.219,2.763,1.9,1.883,2,2.193,2.892,3.247,2.892h2.771c.79,0,1.19-.42.96-1.249C24.756,18,21.194,14.408,21.034,14.168Z" transform="translate(6.232 5.989)" fill="#fff"/></g></g></svg>