<svg xmlns="http://www.w3.org/2000/svg" width="38.074" height="38.074" viewBox="0 0 38.074 38.074"><g transform="translate(-1068.926 -439.94)"><rect width="38" height="38" rx="2" transform="translate(1069 440)" fill="#405898"/><g transform="translate(1068.926 439.94)"><path d="M33.315,0H4.759A4.763,4.763,0,0,0,0,4.759V33.315a4.764,4.764,0,0,0,4.759,4.759H33.315a4.765,4.765,0,0,0,4.759-4.759V4.759A4.764,4.764,0,0,0,33.315,0Z" fill="#3b5999"/><path d="M20.9,16.4V11.639c0-1.314,1.066-1.19,2.38-1.19h2.38V4.5H20.9a7.137,7.137,0,0,0-7.139,7.139V16.4H9v5.949h4.759V35.435H20.9V22.347h3.569l2.38-5.949Z" transform="translate(5.278 2.639)" fill="#fff"/></g></g></svg>